<?xml version="1.0" encoding="UTF-8"?>
<svg width="20px" height="20px" viewBox="0 0 20 20" version="1.1" xmlns="http://www.w3.org/2000/svg" xmlns:xlink="http://www.w3.org/1999/xlink">
    <!-- Generator: Sketch 47 (45396) - http://www.bohemiancoding.com/sketch -->
    <title>绑定手机-个人中心</title>
    <desc>Created with Sketch.</desc>
    <defs></defs>
    <g id="Page-1" stroke="none" stroke-width="1" fill="none" fill-rule="evenodd">
        <g id="绑定手机-个人中心">
            <path d="M17.5001,19.5 L1.5001,19.5 C0.9481,19.5 0.5001,19.052 0.5001,18.5 L0.5001,1.5 C0.5001,0.948 0.9481,0.5 1.5001,0.5 L17.5001,0.5 C18.0521,0.5 18.5001,0.948 18.5001,1.5 L18.5001,18.5 C18.5001,19.052 18.0521,19.5 17.5001,19.5 Z" id="Stroke-1" stroke="#333333"></path>
            <path d="M0.5001,13.4146 L18.5001,13.4146" id="Stroke-3" stroke="#333333"></path>
            <path d="M10.5001,16.1538 C10.5001,16.7058 10.0521,17.1538 9.5001,17.1538 C8.9481,17.1538 8.5001,16.7058 8.5001,16.1538 C8.5001,15.6018 8.9481,15.1538 9.5001,15.1538 C10.0521,15.1538 10.5001,15.6018 10.5001,16.1538" id="Fill-5" fill="#333333"></path>
        </g>
    </g>
</svg>