<?xml version="1.0" encoding="UTF-8"?>
<svg width="17px" height="16px" viewBox="0 0 17 16" version="1.1" xmlns="http://www.w3.org/2000/svg" xmlns:xlink="http://www.w3.org/1999/xlink">
    <!-- Generator: Sketch 47 (45396) - http://www.bohemiancoding.com/sketch -->
    <title>通知-2</title>
    <desc>Created with Sketch.</desc>
    <defs></defs>
    <g id="Page-1" stroke="none" stroke-width="1" fill="none" fill-rule="evenodd">
        <g id="专栏-消息中心" transform="translate(-711.000000, -588.000000)" fill-rule="nonzero" fill="#CDCDCD">
            <g id="Group-18" transform="translate(627.000000, 504.000000)">
                <path d="M85.2739194,88.9864847 C84.5459655,88.9864847 84,89.5324502 84,90.2058076 L84,93.6726883 C84,94.3460458 84.5459655,94.8920112 85.2739194,94.8920112 L87.5214773,94.8920112 L93.1176234,99.8238994 L93.1176234,84 L87.5214773,88.9227887 L85.2739194,88.9227887 L85.2739194,88.9864847 Z M98.358892,85.7652884 C98.1769035,85.5832999 97.8129265,85.5832999 97.630938,85.7652884 C97.4489496,85.9472769 97.4489496,86.3112538 97.630938,86.4932423 C100.733842,89.5324502 100.733842,94.4643383 97.630938,97.4398501 C97.4489496,97.6218386 97.4489496,97.9858156 97.630938,98.1678041 C97.7492306,98.2860966 97.8766225,98.2860966 97.994915,98.2860966 C98.1132075,98.2860966 98.2405995,98.2224006 98.358892,98.1678041 C101.880369,94.7646193 101.880369,89.1684732 98.358892,85.7652884 Z M95.1922923,88.7408002 C95.0103038,88.9227887 95.0103038,89.2867657 95.1922923,89.4687542 C96.5936036,90.8063696 96.5936036,93.0539275 95.1922923,94.4006423 C95.0103038,94.5826308 95.0103038,94.9466078 95.1922923,95.1285963 C95.3105848,95.2468888 95.4379767,95.2468888 95.5562692,95.2468888 C95.6745618,95.2468888 95.8019537,95.1831928 95.9202462,95.1285963 C97.7492306,93.3633079 97.7492306,90.5060886 95.9202462,88.7408002 C95.7382577,88.5588117 95.4379767,88.5588117 95.1922923,88.7408002 Z" id="通知-2"></path>
            </g>
        </g>
    </g>
</svg>