<?xml version="1.0" encoding="UTF-8"?>
<svg width="20px" height="21px" viewBox="0 0 20 21" version="1.1" xmlns="http://www.w3.org/2000/svg" xmlns:xlink="http://www.w3.org/1999/xlink">
    <!-- Generator: Sketch 47 (45396) - http://www.bohemiancoding.com/sketch -->
    <title>修改密码-个人中心2</title>
    <desc>Created with Sketch.</desc>
    <defs></defs>
    <g id="Page-1" stroke="none" stroke-width="1" fill="none" fill-rule="evenodd">
        <g id="修改密码-个人中心2" transform="translate(0.000000, 1.000000)">
            <path d="M3.8082,7.8557 L3.8082,6.1917 C3.8082,3.0477 6.3562,0.4997 9.5002,0.4997 C12.6432,0.4997 15.1922,3.0477 15.1922,6.1917" id="Stroke-1" stroke="#ff9d11" stroke-linecap="round"></path>
            <path d="M17.5001,18.8557 L1.5001,18.8557 C0.9481,18.8557 0.5001,18.4077 0.5001,17.8557 L0.5001,8.8557 C0.5001,8.3027 0.9481,7.8557 1.5001,7.8557 L17.5001,7.8557 C18.0521,7.8557 18.5001,8.3027 18.5001,8.8557 L18.5001,17.8557 C18.5001,18.4077 18.0521,18.8557 17.5001,18.8557 Z" id="Stroke-3" stroke="#ff9d11"></path>
            <path d="M10.8746,12.0545 C10.8746,12.8135 10.2596,13.4295 9.4996,13.4295 C8.7406,13.4295 8.1256,12.8135 8.1256,12.0545 C8.1256,11.2955 8.7406,10.6795 9.4996,10.6795 C10.2596,10.6795 10.8746,11.2955 10.8746,12.0545" id="Fill-5" fill="#ff9d11"></path>
            <path d="M9.5001,12.0545 L9.5001,14.9805" id="Stroke-7" stroke="#ff9d11" stroke-linecap="round"></path>
        </g>
    </g>
</svg>